<svg xmlns="http://www.w3.org/2000/svg" viewBox="0 0 74.67 73.33"><defs><style>.cls-1{fill:#d8d8d8;}.cls-2{fill:#18181a;}.cls-3{fill:#fff;}</style></defs><title>Asset 2</title><g id="Layer_2" data-name="Layer 2"><g id="Layer_1-2" data-name="Layer 1"><rect class="cls-1" width="36" height="36" rx="5.68" ry="5.68"/><rect class="cls-2" y="37.33" width="36" height="36" rx="5.68" ry="5.68"/><rect class="cls-1" x="38.67" width="36" height="36" rx="5.68" ry="5.68"/><rect class="cls-1" x="38.67" y="37.33" width="36" height="36" rx="5.68" ry="5.68"/><path class="cls-3" d="M22.24,10.42a1.63,1.63,0,0,1,.55-1,1.43,1.43,0,0,1,.91-.31,1.57,1.57,0,0,1,.91.3,1.48,1.48,0,0,1,.58.89c0,1.22-.05,2.5-.1,3.87s-.15,2.69-.29,4-.32,2.52-.55,3.67a12.44,12.44,0,0,1-.91,2.92,3.83,3.83,0,0,1-1,1.21,6.63,6.63,0,0,1-1.42.88,7.34,7.34,0,0,1-1.64.54,8,8,0,0,1-1.64.18,7.7,7.7,0,0,1-1.86-.23,6.81,6.81,0,0,1-1.7-.65,5.08,5.08,0,0,1-1.38-1.09,4.7,4.7,0,0,1-.88-1.52A15.47,15.47,0,0,1,11,20.16c-.12-1.42-.18-2.87-.18-4.34,0-.48,0-1,0-1.43s0-.94,0-1.4,0-.83,0-1.24,0-.81,0-1.21a1.61,1.61,0,0,1,.55-.94,1.39,1.39,0,0,1,.9-.31,1.61,1.61,0,0,1,.9.28,1.43,1.43,0,0,1,.57.88v1.12c0,.41,0,.83,0,1.27s0,1.05,0,1.65,0,1.18,0,1.72c0,.82,0,1.63.05,2.43a21.07,21.07,0,0,0,.19,2.24,12.8,12.8,0,0,0,.39,1.82A2.6,2.6,0,0,0,15,23.88a3.15,3.15,0,0,0,1.33.85,4.88,4.88,0,0,0,1.43.22,3.68,3.68,0,0,0,1.61-.37,4.53,4.53,0,0,0,1.47-1.18,4.47,4.47,0,0,0,.67-1.82,25.78,25.78,0,0,0,.39-2.91c.09-1.08.16-2.2.2-3.36s.07-2.19.09-3.13c0-.28,0-.57,0-.88S22.24,10.7,22.24,10.42Z"/><path class="cls-3" d="M66.39,24.68a1.42,1.42,0,0,1-.49,1.14,1.58,1.58,0,0,1-1,.35,1.5,1.5,0,0,1-1-.34,1.4,1.4,0,0,1-.51-1.06c-.1-.85-.22-1.77-.34-2.74s-.28-2-.44-3-.34-2-.55-3-.43-1.92-.67-2.79c-.32.75-.62,1.52-.91,2.31s-.59,1.59-.91,2.43c-.4,1.07-.8,2.15-1.19,3.22s-.81,2.1-1.23,3.07a1.64,1.64,0,0,1-1.28.6,1.91,1.91,0,0,1-1.22-.57L49.3,13.76q-.12,1.29-.24,2.61t-.24,2.7l-.57,6.06a1.89,1.89,0,0,1-.64.88,1.4,1.4,0,0,1-.82.28,1.52,1.52,0,0,1-1-.35,1.46,1.46,0,0,1-.49-1.05l1.52-16A1.3,1.3,0,0,1,47.36,8a1.56,1.56,0,0,1,2.24.4c.55,1,1.1,2,1.64,3.06s1.08,2.14,1.64,3.24,1,2,1.44,2.88.93,1.79,1.45,2.73c.3-.76.6-1.53.9-2.33s.6-1.61.92-2.45c.46-1.23.92-2.45,1.39-3.67s.94-2.37,1.42-3.49a1.5,1.5,0,0,1,1.37-.8,1.44,1.44,0,0,1,.85.28,1.57,1.57,0,0,1,.58.85c.36,1.22.7,2.49,1,3.82s.64,2.69.92,4.06.54,2.74.75,4.11S66.27,23.41,66.39,24.68Z"/><path class="cls-3" d="M22.58,45.55a2,2,0,0,1,.91.59,1.06,1.06,0,0,1,.28.77,1.19,1.19,0,0,1-.37.78,2,2,0,0,1-1,.48L18,48.2c0,2.38,0,4.75,0,7.13s0,4.76,0,7.13a1.42,1.42,0,0,1-.49,1.14,1.6,1.6,0,0,1-1,.36,1.48,1.48,0,0,1-1.46-1.38L15,48.2H10.59a1.81,1.81,0,0,1-1.09-.53,1.12,1.12,0,0,1-.32-.85A1.31,1.31,0,0,1,9.6,46a1.71,1.71,0,0,1,1.22-.38h5.26l3.46,0h3Z"/><path class="cls-3" d="M48.21,60.1a2,2,0,0,1-.21-.84,1.12,1.12,0,0,1,.39-.88,1.41,1.41,0,0,1,1-.34,1.54,1.54,0,0,1,.61.12,3.21,3.21,0,0,1,.59.33,8.65,8.65,0,0,0,2.14,1.41,6.1,6.1,0,0,0,2.48.47,3.32,3.32,0,0,0,2.31-.67A2.48,2.48,0,0,0,58.26,58a2.61,2.61,0,0,0-.43-1.65,3.28,3.28,0,0,0-1.16-1,6.75,6.75,0,0,0-1.51-.53c-.54-.12-1-.21-1.43-.27a13.5,13.5,0,0,1-2-.51A6.24,6.24,0,0,1,50,53.16a4.13,4.13,0,0,1-1.2-1.33,3.62,3.62,0,0,1-.41-1.89,4.18,4.18,0,0,1,.73-2.39,5.53,5.53,0,0,1,1.77-1.63A8.72,8.72,0,0,1,53.28,45a11.14,11.14,0,0,1,2.54-.3,7.78,7.78,0,0,1,1.88.21,7,7,0,0,1,1.61.62,1.67,1.67,0,0,1,.61.56,1.25,1.25,0,0,1,.19.65,1.34,1.34,0,0,1-.12.52,1.32,1.32,0,0,1-.34.47,1.36,1.36,0,0,1-.55.28,1.14,1.14,0,0,1-.72-.06c-.52-.15-1-.3-1.55-.43a6.57,6.57,0,0,0-1.61-.19,7.4,7.4,0,0,0-1.3.12,4,4,0,0,0-1.22.42,3,3,0,0,0-.94.76,2,2,0,0,0-.45,1.17,1.14,1.14,0,0,0,.42,1,4.29,4.29,0,0,0,1,.67,5.46,5.46,0,0,0,1,.36l.44.1c.82.18,1.58.37,2.29.55a11.07,11.07,0,0,1,2.34,1,4.28,4.28,0,0,1,1.73,1.72,4.91,4.91,0,0,1,.6,2.4,5.18,5.18,0,0,1-.5,2.34,4.7,4.7,0,0,1-1.32,1.66,6.11,6.11,0,0,1-1.91,1,8,8,0,0,1-2.24.37,8.8,8.8,0,0,1-2-.18,11.15,11.15,0,0,1-2-.59,9.25,9.25,0,0,1-1.7-.93,7.13,7.13,0,0,1-1.31-1.16Z"/></g></g></svg>